<svg width="260" height="113" viewBox="0 0 260 113" fill="none" xmlns="http://www.w3.org/2000/svg">
<path d="M12.7595 11.3711H84.3548V0H0V88.1258L41.823 113C56.4728 104.709 84.3548 88.1258 84.3548 88.1258C84.3548 88.1258 83.8822 46.4319 84.3548 25.5849H71.5952V81.7296L41.823 98.0755L12.7595 81.7296V58.2767H44.5304L59.9798 45.4843H12.7595V11.3711Z" fill="white"/>
<path d="M104.378 2.93865V39.8747H96.7713V2.93865H104.378ZM119.085 18.7177V24.6538H102.299V18.7177H119.085ZM120.86 2.93865V8.90017H102.299V2.93865H120.86Z" fill="white"/>
<path d="M140.486 33.3044V12.4263H147.789V39.8747H140.917L140.486 33.3044ZM141.298 27.6726L143.453 27.6219C143.453 29.4484 143.242 31.1481 142.819 32.7209C142.396 34.2768 141.763 35.6298 140.917 36.7798C140.072 37.9129 139.007 38.8008 137.722 39.4435C136.438 40.0692 134.925 40.3821 133.184 40.3821C131.848 40.3821 130.614 40.196 129.481 39.824C128.366 39.435 127.402 38.8346 126.591 38.0228C125.796 37.1941 125.171 36.1371 124.714 34.8518C124.275 33.5496 124.055 31.9852 124.055 30.1587V12.4263H131.358V30.2094C131.358 31.0212 131.451 31.7062 131.637 32.2643C131.84 32.8224 132.119 33.279 132.474 33.6341C132.829 33.9893 133.243 34.243 133.716 34.3952C134.206 34.5474 134.747 34.6235 135.339 34.6235C136.843 34.6235 138.027 34.3191 138.889 33.7102C139.768 33.1014 140.385 32.2727 140.74 31.2242C141.112 30.1587 141.298 28.9749 141.298 27.6726Z" fill="white"/>
<path d="M166.807 12.4263V17.6015H150.832V12.4263H166.807ZM154.787 5.65304H162.09V31.6047C162.09 32.3996 162.192 33.0084 162.394 33.4312C162.614 33.854 162.935 34.15 163.358 34.3191C163.781 34.4713 164.313 34.5474 164.955 34.5474C165.412 34.5474 165.818 34.5305 166.173 34.4967C166.545 34.4459 166.857 34.3952 167.111 34.3445L167.136 39.7225C166.511 39.9255 165.835 40.0861 165.108 40.2045C164.381 40.3229 163.578 40.3821 162.699 40.3821C161.093 40.3821 159.69 40.1199 158.49 39.5957C157.306 39.0545 156.393 38.192 155.751 37.0081C155.109 35.8243 154.787 34.2683 154.787 32.3404V5.65304Z" fill="white"/>
<path d="M187.193 33.3044V12.4263H194.496V39.8747H187.624L187.193 33.3044ZM188.005 27.6726L190.16 27.6219C190.16 29.4484 189.949 31.1481 189.526 32.7209C189.104 34.2768 188.47 35.6298 187.624 36.7798C186.779 37.9129 185.714 38.8008 184.429 39.4435C183.145 40.0692 181.632 40.3821 179.891 40.3821C178.555 40.3821 177.321 40.196 176.188 39.824C175.073 39.435 174.109 38.8346 173.298 38.0228C172.503 37.1941 171.878 36.1371 171.421 34.8518C170.982 33.5496 170.762 31.9852 170.762 30.1587V12.4263H178.065V30.2094C178.065 31.0212 178.158 31.7062 178.344 32.2643C178.547 32.8224 178.826 33.279 179.181 33.6341C179.536 33.9893 179.95 34.243 180.423 34.3952C180.913 34.5474 181.454 34.6235 182.046 34.6235C183.55 34.6235 184.734 34.3191 185.596 33.7102C186.475 33.1014 187.092 32.2727 187.447 31.2242C187.819 30.1587 188.005 28.9749 188.005 27.6726Z" fill="white"/>
<path d="M207.377 18.4132V39.8747H200.075V12.4263H206.946L207.377 18.4132ZM215.644 12.2488L215.517 19.0221C215.162 18.9713 214.731 18.9291 214.224 18.8952C213.733 18.8445 213.285 18.8191 212.88 18.8191C211.848 18.8191 210.953 18.9544 210.192 19.225C209.448 19.4787 208.823 19.8592 208.315 20.3666C207.825 20.874 207.453 21.4912 207.2 22.2185C206.963 22.9457 206.828 23.7744 206.794 24.7045L205.323 24.2479C205.323 22.4721 205.501 20.8401 205.856 19.3519C206.211 17.8467 206.726 16.536 207.403 15.4198C208.096 14.3036 208.941 13.4411 209.938 12.8322C210.936 12.2234 212.077 11.919 213.361 11.919C213.767 11.919 214.181 11.9528 214.604 12.0205C215.027 12.0712 215.373 12.1473 215.644 12.2488Z" fill="white"/>
<path d="M231.213 40.3821C229.083 40.3821 227.172 40.0438 225.482 39.3674C223.791 38.674 222.355 37.7184 221.171 36.5007C220.005 35.2831 219.109 33.8709 218.483 32.2643C217.858 30.6407 217.545 28.9157 217.545 27.0892V26.0744C217.545 23.9942 217.841 22.0916 218.433 20.3666C219.024 18.6416 219.87 17.1448 220.968 15.8764C222.084 14.608 223.436 13.6356 225.026 12.9591C226.615 12.2657 228.406 11.919 230.401 11.919C232.345 11.919 234.069 12.2403 235.574 12.883C237.078 13.5256 238.338 14.4389 239.352 15.6227C240.383 16.8066 241.161 18.2272 241.685 19.8846C242.209 21.5251 242.471 23.3516 242.471 25.3641V28.4083H220.664V23.5376H235.295V22.9795C235.295 21.9648 235.109 21.06 234.737 20.2651C234.382 19.4533 233.841 18.8107 233.114 18.3371C232.387 17.8636 231.458 17.6268 230.325 17.6268C229.362 17.6268 228.533 17.8382 227.84 18.261C227.147 18.6838 226.581 19.2758 226.141 20.0368C225.719 20.7978 225.397 21.6942 225.178 22.7258C224.975 23.7406 224.873 24.8568 224.873 26.0744V27.0892C224.873 28.1884 225.026 29.2032 225.33 30.1333C225.651 31.0635 226.099 31.8668 226.674 32.5433C227.265 33.2198 227.975 33.7441 228.804 34.1161C229.649 34.4882 230.604 34.6742 231.669 34.6742C232.988 34.6742 234.213 34.4206 235.346 33.9132C236.495 33.3889 237.484 32.6025 238.312 31.554L241.862 35.4099C241.288 36.2386 240.502 37.0335 239.504 37.7945C238.524 38.5556 237.34 39.1813 235.954 39.6718C234.568 40.1453 232.988 40.3821 231.213 40.3821Z" fill="white"/>
<path d="M117.802 77.9138V83.2563H101.074V77.9138H117.802ZM103.288 50.0139V83.2563H96.4417V50.0139H103.288Z" fill="white"/>
<path d="M132.681 83.713C130.765 83.713 129.045 83.4085 127.524 82.7997C126.003 82.1756 124.709 81.3157 123.644 80.2198C122.595 79.1238 121.788 77.8529 121.225 76.4069C120.662 74.9457 120.381 73.3932 120.381 71.7493V70.8361C120.381 68.9639 120.647 67.2515 121.18 65.699C121.712 64.1465 122.473 62.7994 123.462 61.6579C124.466 60.5163 125.683 59.6411 127.113 59.0323C128.543 58.4082 130.156 58.0962 131.951 58.0962C133.701 58.0962 135.253 58.3854 136.607 58.9638C137.961 59.5422 139.094 60.3641 140.007 61.4295C140.935 62.495 141.635 63.7736 142.107 65.2652C142.578 66.7416 142.814 68.3855 142.814 70.1968V72.9366H123.188V68.5529H136.356V68.0506C136.356 67.1374 136.188 66.3231 135.854 65.6077C135.534 64.8771 135.047 64.2987 134.393 63.8725C133.739 63.4463 132.902 63.2332 131.883 63.2332C131.016 63.2332 130.27 63.4235 129.646 63.804C129.022 64.1845 128.513 64.7173 128.117 65.4022C127.737 66.0871 127.448 66.8939 127.25 67.8223C127.067 68.7356 126.976 69.7402 126.976 70.8361V71.7493C126.976 72.7387 127.113 73.6519 127.387 74.4891C127.676 75.3262 128.079 76.0492 128.597 76.6581C129.129 77.2669 129.768 77.7387 130.513 78.0736C131.274 78.4085 132.134 78.5759 133.092 78.5759C134.279 78.5759 135.382 78.3476 136.401 77.891C137.436 77.4191 138.326 76.7113 139.071 75.7676L142.266 79.238C141.749 79.9838 141.042 80.6992 140.144 81.3842C139.262 82.0691 138.197 82.6323 136.949 83.0737C135.701 83.4999 134.279 83.713 132.681 83.713Z" fill="white"/>
<path d="M159.884 77.6855V66.6808C159.884 65.8893 159.755 65.2119 159.496 64.6488C159.238 64.0704 158.834 63.6214 158.287 63.3017C157.754 62.9821 157.062 62.8223 156.21 62.8223C155.48 62.8223 154.848 62.9516 154.316 63.2104C153.783 63.4539 153.373 63.8116 153.083 64.2835C152.794 64.7401 152.65 65.2804 152.65 65.9045H146.077C146.077 64.8543 146.321 63.8573 146.808 62.9136C147.295 61.9699 148.002 61.1403 148.93 60.425C149.858 59.6944 150.961 59.1236 152.239 58.7126C153.532 58.3017 154.978 58.0962 156.575 58.0962C158.492 58.0962 160.196 58.4158 161.687 59.0551C163.178 59.6944 164.349 60.6533 165.201 61.9318C166.069 63.2104 166.502 64.8086 166.502 66.7264V77.2973C166.502 78.652 166.586 79.7631 166.753 80.6307C166.921 81.4831 167.164 82.2289 167.484 82.8682V83.2563H160.843C160.523 82.5866 160.28 81.7495 160.112 80.7449C159.96 79.7251 159.884 78.7053 159.884 77.6855ZM160.751 68.2105L160.797 71.932H157.123C156.256 71.932 155.503 72.0309 154.864 72.2288C154.225 72.4267 153.7 72.7082 153.289 73.0735C152.878 73.4236 152.574 73.8346 152.376 74.3064C152.193 74.7783 152.102 75.2958 152.102 75.859C152.102 76.4221 152.231 76.932 152.49 77.3887C152.749 77.8301 153.122 78.1802 153.608 78.4389C154.095 78.6824 154.666 78.8042 155.32 78.8042C156.309 78.8042 157.168 78.6063 157.899 78.2106C158.629 77.8149 159.192 77.3278 159.587 76.7494C159.998 76.171 160.211 75.623 160.226 75.1055L161.961 77.891C161.717 78.515 161.383 79.1619 160.957 79.8316C160.546 80.5013 160.021 81.133 159.382 81.7266C158.743 82.305 157.975 82.7845 157.077 83.165C156.18 83.5303 155.115 83.713 153.882 83.713C152.315 83.713 150.893 83.4009 149.615 82.7769C148.352 82.1376 147.348 81.2624 146.602 80.1513C145.872 79.0249 145.507 77.7464 145.507 76.3156C145.507 75.0218 145.75 73.8726 146.237 72.8681C146.724 71.8635 147.439 71.0187 148.382 70.3338C149.341 69.6336 150.535 69.1085 151.965 68.7584C153.395 68.3931 155.054 68.2105 156.94 68.2105H160.751Z" fill="white"/>
<path d="M186.151 77.8681V48.1874H192.769V83.2563H186.813L186.151 77.8681ZM170.542 71.2014V70.7219C170.542 68.8345 170.755 67.1222 171.181 65.5849C171.607 64.0323 172.23 62.7005 173.052 61.5894C173.873 60.4782 174.885 59.6183 176.087 59.0094C177.289 58.4006 178.658 58.0962 180.195 58.0962C181.64 58.0962 182.903 58.4006 183.983 59.0094C185.079 59.6183 186.007 60.4859 186.767 61.6122C187.543 62.7233 188.167 64.0399 188.639 65.562C189.11 67.0689 189.453 68.7204 189.666 70.5164V71.5667C189.453 73.2866 189.11 74.8848 188.639 76.3613C188.167 77.8377 187.543 79.1315 186.767 80.2426C186.007 81.3385 185.079 82.1909 183.983 82.7997C182.888 83.4085 181.61 83.713 180.149 83.713C178.613 83.713 177.243 83.4009 176.041 82.7769C174.855 82.1528 173.851 81.2776 173.029 80.1513C172.223 79.0249 171.607 77.7007 171.181 76.1786C170.755 74.6565 170.542 72.9974 170.542 71.2014ZM177.114 70.7219V71.2014C177.114 72.2212 177.19 73.1725 177.342 74.0553C177.51 74.9381 177.776 75.722 178.141 76.4069C178.521 77.0766 179.008 77.6018 179.602 77.9823C180.21 78.3476 180.948 78.5302 181.815 78.5302C182.941 78.5302 183.869 78.2791 184.599 77.7768C185.33 77.2593 185.885 76.5515 186.265 75.6535C186.661 74.7554 186.889 73.7204 186.95 72.5484V69.5575C186.904 68.5986 186.767 67.7386 186.539 66.9776C186.326 66.2013 186.007 65.5392 185.581 64.9912C185.17 64.4433 184.653 64.0171 184.029 63.7127C183.42 63.4083 182.698 63.2561 181.861 63.2561C181.009 63.2561 180.279 63.4539 179.67 63.8497C179.061 64.2302 178.567 64.7553 178.187 65.425C177.821 66.0948 177.548 66.8862 177.365 67.7995C177.198 68.6975 177.114 69.6717 177.114 70.7219Z" fill="white"/>
<path d="M209.269 83.713C207.352 83.713 205.633 83.4085 204.111 82.7997C202.59 82.1756 201.297 81.3157 200.232 80.2198C199.182 79.1238 198.376 77.8529 197.813 76.4069C197.25 74.9457 196.968 73.3932 196.968 71.7493V70.8361C196.968 68.9639 197.235 67.2515 197.767 65.699C198.3 64.1465 199.06 62.7994 200.049 61.6579C201.053 60.5163 202.27 59.6411 203.701 59.0323C205.131 58.4082 206.743 58.0962 208.539 58.0962C210.288 58.0962 211.84 58.3854 213.194 58.9638C214.548 59.5422 215.682 60.3641 216.594 61.4295C217.522 62.495 218.222 63.7736 218.694 65.2652C219.166 66.7416 219.401 68.3855 219.401 70.1968V72.9366H199.775V68.5529H212.943V68.0506C212.943 67.1374 212.776 66.3231 212.441 65.6077C212.121 64.8771 211.635 64.2987 210.98 63.8725C210.326 63.4463 209.489 63.2332 208.47 63.2332C207.603 63.2332 206.857 63.4235 206.234 63.804C205.61 64.1845 205.1 64.7173 204.705 65.4022C204.324 66.0871 204.035 66.8939 203.837 67.8223C203.655 68.7356 203.564 69.7402 203.564 70.8361V71.7493C203.564 72.7387 203.701 73.6519 203.974 74.4891C204.263 75.3262 204.667 76.0492 205.184 76.6581C205.716 77.2669 206.355 77.7387 207.101 78.0736C207.862 78.4085 208.721 78.5759 209.68 78.5759C210.866 78.5759 211.969 78.3476 212.989 77.891C214.023 77.4191 214.913 76.7113 215.659 75.7676L218.854 79.238C218.336 79.9838 217.629 80.6992 216.731 81.3842C215.849 82.0691 214.784 82.6323 213.536 83.0737C212.289 83.4999 210.866 83.713 209.269 83.713Z" fill="white"/>
<path d="M229.716 63.941V83.2563H223.144V58.5528H229.329L229.716 63.941ZM237.156 58.393L237.042 64.4889C236.723 64.4433 236.335 64.4052 235.878 64.3748C235.437 64.3291 235.034 64.3063 234.669 64.3063C233.741 64.3063 232.934 64.4281 232.25 64.6716C231.58 64.8999 231.017 65.2424 230.561 65.699C230.12 66.1556 229.785 66.7112 229.557 67.3657C229.344 68.0202 229.222 68.766 229.192 69.6032L227.868 69.1922C227.868 67.594 228.028 66.1252 228.347 64.7858C228.667 63.4311 229.131 62.2515 229.739 61.2469C230.363 60.2423 231.124 59.466 232.021 58.9181C232.919 58.3701 233.946 58.0962 235.102 58.0962C235.467 58.0962 235.84 58.1266 236.22 58.1875C236.601 58.2332 236.913 58.3017 237.156 58.393Z" fill="white"/>
<path d="M253.61 76.4297C253.61 75.9579 253.473 75.5317 253.199 75.1512C252.925 74.7707 252.416 74.4206 251.67 74.101C250.94 73.7661 249.883 73.4617 248.498 73.1877C247.251 72.9137 246.087 72.5712 245.007 72.1603C243.942 71.7341 243.014 71.2242 242.222 70.6306C241.447 70.037 240.838 69.3368 240.397 68.5301C239.956 67.7082 239.735 66.7721 239.735 65.7218C239.735 64.6868 239.956 63.7127 240.397 62.7994C240.853 61.8862 241.5 61.0795 242.337 60.3793C243.189 59.6639 244.223 59.1084 245.44 58.7126C246.673 58.3017 248.057 58.0962 249.594 58.0962C251.739 58.0962 253.58 58.4386 255.116 59.1236C256.668 59.8085 257.855 60.7522 258.676 61.9547C259.513 63.1419 259.932 64.4966 259.932 66.0186H253.359C253.359 65.3794 253.222 64.8086 252.948 64.3063C252.69 63.7888 252.279 63.3854 251.716 63.0962C251.168 62.7918 250.453 62.6396 249.571 62.6396C248.841 62.6396 248.209 62.769 247.677 63.0277C247.144 63.2713 246.733 63.6061 246.444 64.0323C246.17 64.4433 246.034 64.8999 246.034 65.4022C246.034 65.7827 246.11 66.1252 246.262 66.4296C246.429 66.7188 246.695 66.9852 247.06 67.2287C247.426 67.4722 247.897 67.7006 248.475 67.9137C249.069 68.1115 249.799 68.2942 250.666 68.4616C252.446 68.8269 254.036 69.3064 255.436 69.9C256.835 70.4784 257.946 71.2699 258.768 72.2744C259.589 73.2638 260 74.5652 260 76.1786C260 77.2745 259.757 78.2791 259.27 79.1923C258.783 80.1056 258.083 80.9047 257.17 81.5896C256.257 82.2594 255.162 82.7845 253.884 83.165C252.621 83.5303 251.199 83.713 249.616 83.713C247.319 83.713 245.372 83.302 243.774 82.4801C242.192 81.6581 240.99 80.6155 240.169 79.3522C239.362 78.0736 238.959 76.7646 238.959 75.4252H245.189C245.22 76.3232 245.448 77.0462 245.874 77.5941C246.315 78.1421 246.87 78.5378 247.54 78.7814C248.224 79.0249 248.962 79.1467 249.753 79.1467C250.605 79.1467 251.313 79.0325 251.876 78.8042C252.439 78.5607 252.865 78.241 253.154 77.8453C253.458 77.4343 253.61 76.9625 253.61 76.4297Z" fill="white"/>
<path d="M94.9127 107.906C94.9127 107.419 95.08 107.012 95.4147 106.685C95.757 106.358 96.2097 106.194 96.7726 106.194C97.3355 106.194 97.7843 106.358 98.119 106.685C98.4613 107.012 98.6325 107.419 98.6325 107.906C98.6325 108.393 98.4613 108.801 98.119 109.128C97.7843 109.455 97.3355 109.619 96.7726 109.619C96.2097 109.619 95.757 109.455 95.4147 109.128C95.08 108.801 94.9127 108.393 94.9127 107.906Z" fill="white"/>
<path d="M105 97.1413V109.493H101.702V97.1413H105ZM101.497 93.9221C101.497 93.4427 101.664 93.0469 101.999 92.7349C102.333 92.4229 102.782 92.2668 103.345 92.2668C103.9 92.2668 104.345 92.4229 104.68 92.7349C105.022 93.0469 105.194 93.4427 105.194 93.9221C105.194 94.4016 105.022 94.7973 104.68 95.1094C104.345 95.4214 103.9 95.5774 103.345 95.5774C102.782 95.5774 102.333 95.4214 101.999 95.1094C101.664 94.7973 101.497 94.4016 101.497 93.9221Z" fill="white"/>
<path d="M115.007 106.799V91.9586H118.316V109.493H115.337L115.007 106.799ZM107.202 103.466V103.226C107.202 102.282 107.308 101.426 107.521 100.657C107.734 99.8811 108.046 99.2152 108.457 98.6596C108.868 98.1041 109.374 97.6741 109.975 97.3697C110.576 97.0652 111.26 96.913 112.028 96.913C112.751 96.913 113.382 97.0652 113.923 97.3697C114.47 97.6741 114.934 98.1079 115.315 98.671C115.703 99.2266 116.015 99.8849 116.25 100.646C116.486 101.399 116.657 102.225 116.764 103.123V103.648C116.657 104.508 116.486 105.307 116.25 106.046C116.015 106.784 115.703 107.431 115.315 107.986C114.934 108.534 114.47 108.96 113.923 109.265C113.375 109.569 112.736 109.721 112.006 109.721C111.237 109.721 110.553 109.565 109.952 109.253C109.358 108.941 108.856 108.504 108.446 107.941C108.042 107.377 107.734 106.715 107.521 105.954C107.308 105.193 107.202 104.364 107.202 103.466ZM110.488 103.226V103.466C110.488 103.976 110.526 104.451 110.602 104.893C110.686 105.334 110.819 105.726 111.001 106.068C111.192 106.403 111.435 106.666 111.732 106.856C112.036 107.039 112.405 107.13 112.839 107.13C113.402 107.13 113.866 107.004 114.231 106.753C114.596 106.495 114.873 106.141 115.064 105.692C115.261 105.243 115.376 104.725 115.406 104.139V102.644C115.383 102.164 115.315 101.734 115.201 101.354C115.094 100.966 114.934 100.635 114.721 100.361C114.516 100.087 114.257 99.8735 113.945 99.7213C113.641 99.5691 113.28 99.493 112.861 99.493C112.435 99.493 112.07 99.5919 111.766 99.7898C111.462 99.98 111.214 100.243 111.024 100.577C110.842 100.912 110.705 101.308 110.614 101.765C110.53 102.214 110.488 102.701 110.488 103.226Z" fill="white"/>
</svg>
